<svg width="20" height="20" viewBox="0 0 20 20" fill="none" xmlns="http://www.w3.org/2000/svg">
<path d="M8.33328 5.00021C8.11227 5.00021 7.90031 5.08801 7.74403 5.24429C7.58775 5.40057 7.49995 5.61253 7.49995 5.83354L7.49995 15.4919L5.59162 13.5752C5.4347 13.4183 5.22187 13.3301 4.99995 13.3301C4.77803 13.3301 4.5652 13.4183 4.40828 13.5752C4.25136 13.7321 4.16321 13.945 4.16321 14.1669C4.16321 14.3888 4.25136 14.6016 4.40828 14.7585L7.74162 18.0919C7.8588 18.2075 8.00762 18.2858 8.16927 18.317C8.33093 18.3481 8.49819 18.3307 8.64995 18.2669C8.80213 18.2044 8.93241 18.0982 9.02435 17.9618C9.11629 17.8253 9.1658 17.6647 9.16662 17.5002V5.83354C9.16662 5.61253 9.07882 5.40057 8.92254 5.24429C8.76626 5.08801 8.5543 5.00021 8.33328 5.00021ZM11.35 1.73354C11.1978 1.79606 11.0675 1.90223 10.9756 2.03866C10.8836 2.17509 10.8341 2.33569 10.8333 2.50021V14.1669C10.8333 14.3879 10.9211 14.5999 11.0774 14.7561C11.2336 14.9124 11.4456 15.0002 11.6666 15.0002C11.8876 15.0002 12.0996 14.9124 12.2559 14.7561C12.4122 14.5999 12.5 14.3879 12.5 14.1669V4.50854L14.4083 6.42521C14.4858 6.50332 14.5779 6.56531 14.6795 6.60762C14.781 6.64993 14.8899 6.67171 15 6.67171C15.11 6.67171 15.2189 6.64993 15.3204 6.60762C15.422 6.56531 15.5141 6.50332 15.5916 6.42521C15.6697 6.34774 15.7317 6.25557 15.774 6.15402C15.8163 6.05247 15.8381 5.94355 15.8381 5.83354C15.8381 5.72353 15.8163 5.61461 15.774 5.51306C15.7317 5.41151 15.6697 5.31935 15.5916 5.24188L12.2583 1.90854C12.1411 1.79291 11.9923 1.71458 11.8306 1.68344C11.669 1.65229 11.5017 1.66973 11.35 1.73354Z" fill="#FCFCFD"/>
</svg>
