<svg width="512" height="512" viewBox="0 0 512 512" fill="none" xmlns="http://www.w3.org/2000/svg">
<rect width="512" height="512" rx="30" fill="#F2F230"/>
<g filter="url(#filter0_d_10724_746)">
<path d="M375.41 54.2701L373.268 50H139.268L22 255.5L138.732 461H372.732L490 255.5L375.41 54.2701ZM166.577 123.66L41.2769 243.223L140.874 68.1481L166.577 123.66ZM366.842 67.6143L401.112 258.169L185.854 126.329L366.842 67.6143ZM178.357 134.335L397.899 268.844L178.357 393.212V134.335ZM400.577 279.519L362.023 443.92L187.46 400.684L400.577 279.519ZM167.648 388.942L41.2769 258.169L167.648 137.004V388.942ZM166.041 402.819L141.41 443.92L49.8444 282.722L166.041 402.819ZM175.68 408.157L343.817 450.325H149.977L175.68 408.157ZM412.892 273.114L475.007 259.77L374.339 436.981L412.892 273.114ZM473.936 249.629L412.892 262.973L381.3 86.2961L473.936 249.629ZM175.68 118.322L148.906 60.6753H353.455L175.68 118.322Z" fill="#1D2939"/>
<path d="M375.41 54.2701L373.268 50H139.268L22 255.5L138.732 461H372.732L490 255.5L375.41 54.2701ZM166.577 123.66L41.2769 243.223L140.874 68.1481L166.577 123.66ZM366.842 67.6143L401.112 258.169L185.854 126.329L366.842 67.6143ZM178.357 134.335L397.899 268.844L178.357 393.212V134.335ZM400.577 279.519L362.023 443.92L187.46 400.684L400.577 279.519ZM167.648 388.942L41.2769 258.169L167.648 137.004V388.942ZM166.041 402.819L141.41 443.92L49.8444 282.722L166.041 402.819ZM175.68 408.157L343.817 450.325H149.977L175.68 408.157ZM412.892 273.114L475.007 259.77L374.339 436.981L412.892 273.114ZM473.936 249.629L412.892 262.973L381.3 86.2961L473.936 249.629ZM175.68 118.322L148.906 60.6753H353.455L175.68 118.322Z" stroke="#1D2939" stroke-width="1.35811"/>
</g>
<defs>
<filter id="filter0_d_10724_746" x="11.1298" y="39.6203" width="489.741" height="432.536" filterUnits="userSpaceOnUse" color-interpolation-filters="sRGB">
<feFlood flood-opacity="0" result="BackgroundImageFix"/>
<feColorMatrix in="SourceAlpha" type="matrix" values="0 0 0 0 0 0 0 0 0 0 0 0 0 0 0 0 0 0 127 0" result="hardAlpha"/>
<feOffset dy="0.388032"/>
<feGaussianBlur stdDeviation="5.04441"/>
<feComposite in2="hardAlpha" operator="out"/>
<feColorMatrix type="matrix" values="0 0 0 0 0 0 0 0 0 0 0 0 0 0 0 0 0 0 0.25 0"/>
<feBlend mode="normal" in2="BackgroundImageFix" result="effect1_dropShadow_10724_746"/>
<feBlend mode="normal" in="SourceGraphic" in2="effect1_dropShadow_10724_746" result="shape"/>
</filter>
</defs>
</svg>
