<svg width="60" height="60" viewBox="0 0 60 60" fill="none" xmlns="http://www.w3.org/2000/svg">
<g clip-path="url(#clip0_9774_33777)">
<rect width="60" height="60" rx="8.20312" fill="#F2F230"/>
<g filter="url(#filter0_d_9774_33777)">
<path d="M41.7269 10.1478L41.5163 9.72656H18.5047L6.97266 29.9999L18.4521 50.2733H41.4636L52.9957 29.9999L41.7269 10.1478ZM21.1903 16.9934L8.86834 28.7888L18.6627 11.5169L21.1903 16.9934ZM40.8844 11.4643L44.2545 30.2632L23.086 17.2567L40.8844 11.4643ZM22.3488 18.0465L43.9385 31.3164L22.3488 43.5857V18.0465ZM44.2018 32.3696L40.4105 48.5883L23.244 44.323L44.2018 32.3696ZM21.2956 43.1645L8.86834 30.2632L21.2956 18.3098V43.1645ZM21.1376 44.5336L18.7154 48.5883L9.71087 32.6855L21.1376 44.5336ZM22.0855 45.0602L38.6201 49.2202H19.5579L22.0855 45.0602ZM45.413 31.7377L51.5213 30.4212L41.6216 47.9037L45.413 31.7377ZM51.416 29.4207L45.413 30.7372L42.3061 13.3073L51.416 29.4207ZM22.0855 16.4668L19.4526 10.7797H39.5679L22.0855 16.4668Z" fill="#1D2939"/>
<path d="M41.7269 10.1478L41.5163 9.72656H18.5047L6.97266 29.9999L18.4521 50.2733H41.4636L52.9957 29.9999L41.7269 10.1478ZM21.1903 16.9934L8.86834 28.7888L18.6627 11.5169L21.1903 16.9934ZM40.8844 11.4643L44.2545 30.2632L23.086 17.2567L40.8844 11.4643ZM22.3488 18.0465L43.9385 31.3164L22.3488 43.5857V18.0465ZM44.2018 32.3696L40.4105 48.5883L23.244 44.323L44.2018 32.3696ZM21.2956 43.1645L8.86834 30.2632L21.2956 18.3098V43.1645ZM21.1376 44.5336L18.7154 48.5883L9.71087 32.6855L21.1376 44.5336ZM22.0855 45.0602L38.6201 49.2202H19.5579L22.0855 45.0602ZM45.413 31.7377L51.5213 30.4212L41.6216 47.9037L45.413 31.7377ZM51.416 29.4207L45.413 30.7372L42.3061 13.3073L51.416 29.4207ZM22.0855 16.4668L19.4526 10.7797H39.5679L22.0855 16.4668Z" stroke="#1D2939" stroke-width="1.35811"/>
</g>
</g>
<defs>
<filter id="filter0_d_9774_33777" x="-3.89693" y="-0.653183" width="67.7625" height="62.0822" filterUnits="userSpaceOnUse" color-interpolation-filters="sRGB">
<feFlood flood-opacity="0" result="BackgroundImageFix"/>
<feColorMatrix in="SourceAlpha" type="matrix" values="0 0 0 0 0 0 0 0 0 0 0 0 0 0 0 0 0 0 127 0" result="hardAlpha"/>
<feOffset dy="0.388032"/>
<feGaussianBlur stdDeviation="5.04441"/>
<feComposite in2="hardAlpha" operator="out"/>
<feColorMatrix type="matrix" values="0 0 0 0 0 0 0 0 0 0 0 0 0 0 0 0 0 0 0.25 0"/>
<feBlend mode="normal" in2="BackgroundImageFix" result="effect1_dropShadow_9774_33777"/>
<feBlend mode="normal" in="SourceGraphic" in2="effect1_dropShadow_9774_33777" result="shape"/>
</filter>
<clipPath id="clip0_9774_33777">
<rect width="60" height="60" rx="8.20312" fill="white"/>
</clipPath>
</defs>
</svg>
