<svg width="60" height="60" viewBox="0 0 60 60" fill="none" xmlns="http://www.w3.org/2000/svg">
<rect width="60" height="60" rx="8.20312" fill="#101828"/>
<path d="M41.7664 10.0325L41.5548 9.60938H18.4395L6.85547 29.9741L18.3866 50.3389H41.5019L53.0859 29.9741L41.7664 10.0325ZM21.1372 16.9089L8.7597 28.7575L18.5982 11.4078L21.1372 16.9089ZM40.92 11.3549L44.3053 30.2386L23.0414 17.1734L40.92 11.3549ZM22.3009 17.9669L43.988 31.2965L22.3009 43.6212V17.9669ZM44.2524 32.3544L40.444 48.6462L23.2001 44.3617L44.2524 32.3544ZM21.243 43.198L8.7597 30.2386L21.243 18.2313V43.198ZM21.0843 44.5733L18.6511 48.6462L9.60602 32.6718L21.0843 44.5733ZM22.0364 45.1022L38.6455 49.281H19.4974L22.0364 45.1022ZM45.469 31.7197L51.6049 30.3973L41.6606 47.9586L45.469 31.7197ZM51.4991 29.3923L45.469 30.7147L42.3482 13.2063L51.4991 29.3923ZM22.0364 16.38L19.3916 10.6673H39.5976L22.0364 16.38Z" fill="url(#paint0_linear_9774_33779)" stroke="#F2F230" stroke-width="1.17188"/>
<defs>
<linearGradient id="paint0_linear_9774_33779" x1="53.3471" y1="18.02" x2="6.65134" y2="15.1503" gradientUnits="userSpaceOnUse">
<stop stop-color="#F2F230"/>
<stop offset="1" stop-color="#888827"/>
</linearGradient>
</defs>
</svg>
